<?xml version="1.0" encoding="UTF-8" standalone="no"?>
<!DOCTYPE svg PUBLIC "-//W3C//DTD SVG 1.1//EN" "http://www.w3.org/Graphics/SVG/1.1/DTD/svg11.dtd">
<svg width="100%" height="100%" viewBox="0 0 180 180" version="1.1" xmlns="http://www.w3.org/2000/svg" xmlns:xlink="http://www.w3.org/1999/xlink" xml:space="preserve" xmlns:serif="http://www.serif.com/" style="fill-rule:evenodd;clip-rule:evenodd;stroke-linejoin:round;stroke-miterlimit:2;">
    <g transform="matrix(1.02857,0,0,1.02857,-415.667,-211.496)">
        <rect x="404.121" y="205.621" width="175" height="175" style="fill:rgb(244,152,156);"/>
    </g>
    <path d="M60.001,120L60.001,119.999C60.001,103.431 73.431,90 89.999,90L90.001,90C106.569,90 120,103.431 120,119.999L120,120L180,120L180,180L120,180C120,164.346 107.985,151.477 92.682,150.118L92.68,150.118L92.497,150.103L92.493,150.102L92.492,150.102L92.476,150.101L92.307,150.088L92.303,150.087L92.273,150.085L92.116,150.074L92.113,150.073L92.112,150.073L92.07,150.071L91.925,150.061L91.922,150.061L91.868,150.057L91.734,150.049L91.731,150.049L91.667,150.046L91.543,150.039L91.54,150.039L91.467,150.035L91.351,150.03L91.349,150.03L91.267,150.026L91.159,150.022L91.157,150.022L91.068,150.019L90.967,150.015L90.965,150.015L90.868,150.013L90.774,150.01L90.772,150.01L90.669,150.007L90.581,150.006L90.58,150.006L90.467,150.004L90.387,150.002L90.259,150.001L90.194,150.001L90,150C89.935,150 89.871,150 89.806,150.001L89.741,150.001L89.613,150.002L89.533,150.004L89.42,150.006L89.419,150.006L89.331,150.007L89.228,150.01L89.226,150.01L89.132,150.013L89.035,150.015L89.033,150.015L88.932,150.019L88.843,150.022L88.841,150.022L88.733,150.026L88.651,150.03L88.649,150.03L88.533,150.035L88.46,150.039L88.457,150.039L88.333,150.046L88.269,150.049L88.266,150.049L88.132,150.057L88.078,150.061L88.075,150.061L87.93,150.071L87.888,150.073L87.887,150.073L87.884,150.074L87.727,150.085L87.697,150.087L87.693,150.088L87.524,150.101L87.508,150.102L87.507,150.102L87.503,150.103L87.32,150.118L87.318,150.118C72.015,151.477 60,164.346 60,180L0,180L0,120L60.001,120Z" style="fill:rgb(218,196,247);"/>
</svg>
