<?xml version="1.0" encoding="UTF-8" standalone="no"?>
<!DOCTYPE svg PUBLIC "-//W3C//DTD SVG 1.1//EN" "http://www.w3.org/Graphics/SVG/1.1/DTD/svg11.dtd">
<svg width="100%" height="100%" viewBox="0 0 180 180" version="1.1" xmlns="http://www.w3.org/2000/svg" xmlns:xlink="http://www.w3.org/1999/xlink" xml:space="preserve" xmlns:serif="http://www.serif.com/" style="fill-rule:evenodd;clip-rule:evenodd;stroke-linejoin:round;stroke-miterlimit:2;">
    <rect x="0" y="0" width="180" height="180" style="fill:rgb(242,239,234);"/>
    <g transform="matrix(0.721173,0,0,0.721173,0,-1.92159e-15)">
        <circle cx="31.291" cy="31.291" r="31.291" style="fill:rgb(64,61,88);"/>
    </g>
    <g transform="matrix(0.721173,0,0,0.721173,33.1928,33.1928)">
        <circle cx="31.291" cy="31.291" r="31.291" style="fill:rgb(252,119,83);"/>
    </g>
    <g transform="matrix(0.721173,0,0,0.721173,101.675,101.675)">
        <circle cx="31.291" cy="31.291" r="31.291" style="fill:rgb(219,213,110);"/>
    </g>
    <g transform="matrix(0.721173,0,0,0.721173,134.868,134.868)">
        <circle cx="31.291" cy="31.291" r="31.291" style="fill:rgb(252,119,83);"/>
    </g>
    <g transform="matrix(0.721173,0,0,0.721173,67.4341,67.4341)">
        <circle cx="31.291" cy="31.291" r="31.291" style="fill:rgb(252,119,83);"/>
    </g>
    <g transform="matrix(0.721173,0,0,0.721173,67.4341,67.4341)">
        <circle cx="31.291" cy="31.291" r="31.291" style="fill:rgb(252,119,83);"/>
    </g>
    <g transform="matrix(0.721173,0,0,0.721173,67.4341,67.4341)">
        <circle cx="31.291" cy="31.291" r="31.291" style="fill:rgb(102,215,209);"/>
    </g>
</svg>
