<?xml version="1.0" encoding="UTF-8" standalone="no"?>
<!DOCTYPE svg PUBLIC "-//W3C//DTD SVG 1.1//EN" "http://www.w3.org/Graphics/SVG/1.1/DTD/svg11.dtd">
<svg width="100%" height="100%" viewBox="0 0 180 180" version="1.1" xmlns="http://www.w3.org/2000/svg" xmlns:xlink="http://www.w3.org/1999/xlink" xml:space="preserve" xmlns:serif="http://www.serif.com/" style="fill-rule:evenodd;clip-rule:evenodd;stroke-linejoin:round;stroke-miterlimit:2;">
    <g>
        <g transform="matrix(1,0,0,1,-400,-200)">
            <path d="M460,200L400,200L400,260L400.002,260C433.138,260 460,233.138 460,200.002L460,200Z" style="fill:rgb(218,196,247);"/>
        </g>
        <g transform="matrix(1,0,0,1,-400,-200)">
            <path d="M580,200L520,200L520,200.002C520,233.138 546.862,260 579.998,260L580,260L580,200Z" style="fill:rgb(218,196,247);"/>
        </g>
    </g>
    <g transform="matrix(1,0,0,1,-400,-200)">
        <path d="M580,380L520,380C520,364.346 507.985,351.477 492.682,350.118L492.68,350.118L492.497,350.103L492.493,350.102L492.492,350.102L492.476,350.101L492.307,350.088L492.303,350.087L492.273,350.085L492.116,350.074L492.113,350.073L492.112,350.073L492.07,350.071L491.925,350.061L491.923,350.061L491.922,350.061L491.868,350.057L491.734,350.049L491.732,350.049L491.731,350.049L491.667,350.046L491.543,350.039L491.541,350.039L491.54,350.039L491.467,350.035L491.351,350.03L491.349,350.03L491.267,350.026L491.159,350.022L491.158,350.022L491.157,350.022L491.068,350.019L490.967,350.015L490.966,350.015L490.965,350.015L490.868,350.013L490.774,350.01L490.773,350.01L490.772,350.01L490.669,350.007L490.581,350.006L490.58,350.006L490.467,350.004L490.387,350.002L490.259,350.001L490.194,350.001L490,350C489.935,350 489.871,350 489.806,350.001L489.741,350.001L489.613,350.002L489.533,350.004L489.42,350.006L489.419,350.006L489.331,350.007L489.228,350.01L489.227,350.01L489.226,350.01L489.132,350.013L489.035,350.015L489.034,350.015L489.033,350.015L488.932,350.019L488.843,350.022L488.842,350.022L488.841,350.022L488.733,350.026L488.651,350.03L488.649,350.03L488.533,350.035L488.46,350.039L488.459,350.039L488.457,350.039L488.333,350.046L488.269,350.049L488.268,350.049L488.266,350.049L488.132,350.057L488.078,350.061L488.077,350.061L488.075,350.061L487.93,350.071L487.888,350.073L487.887,350.073L487.884,350.074L487.727,350.085L487.697,350.087L487.693,350.088L487.524,350.101L487.508,350.102L487.507,350.102L487.503,350.103L487.32,350.118L487.318,350.118C472.015,351.477 460,364.346 460,380L400,380L400,320L580,320L580,380Z" style="fill:rgb(218,196,247);"/>
    </g>
</svg>
