<?xml version="1.0" encoding="UTF-8" standalone="no"?>
<!DOCTYPE svg PUBLIC "-//W3C//DTD SVG 1.1//EN" "http://www.w3.org/Graphics/SVG/1.1/DTD/svg11.dtd">
<svg width="100%" height="100%" viewBox="0 0 180 180" version="1.1" xmlns="http://www.w3.org/2000/svg" xmlns:xlink="http://www.w3.org/1999/xlink" xml:space="preserve" xmlns:serif="http://www.serif.com/" style="fill-rule:evenodd;clip-rule:evenodd;stroke-linejoin:round;stroke-miterlimit:2;">
    <rect x="0" y="0" width="180" height="180" style="fill:rgb(242,239,234);"/>
    <path d="M0,9.898L170.102,180L180,180L180,170.102L9.898,0L0,0L0,9.898Z" style="fill:rgb(252,119,83);"/>
    <g transform="matrix(0.790749,0,0,0.790749,0,37.6652)">
        <path d="M90,179.998C90,156.129 80.518,133.238 63.64,116.36C46.762,99.482 23.871,90 0.002,90L0,90L0,180L90,180L90,179.998Z" style="fill:rgb(252,119,83);"/>
    </g>
    <g transform="matrix(-0.790749,-9.68388e-17,9.68388e-17,-0.790749,180,142.335)">
        <path d="M90,179.998C90,156.129 80.518,133.238 63.64,116.36C46.762,99.482 23.871,90 0.002,90L0,90L0,180L90,180L90,179.998Z" style="fill:rgb(252,119,83);"/>
    </g>
</svg>
