<?xml version="1.0" encoding="UTF-8" standalone="no"?>
<!DOCTYPE svg PUBLIC "-//W3C//DTD SVG 1.1//EN" "http://www.w3.org/Graphics/SVG/1.1/DTD/svg11.dtd">
<svg width="100%" height="100%" viewBox="0 0 180 180" version="1.1" xmlns="http://www.w3.org/2000/svg" xmlns:xlink="http://www.w3.org/1999/xlink" xml:space="preserve" xmlns:serif="http://www.serif.com/" style="fill-rule:evenodd;clip-rule:evenodd;stroke-linejoin:round;stroke-miterlimit:2;">
    <rect x="0" y="0" width="180" height="180" style="fill:rgb(214,246,221);"/>
    <g transform="matrix(0.512165,0,0,0.504532,0,31.5742)">
        <circle cx="31.291" cy="31.291" r="31.291" style="fill:rgb(172,236,247);"/>
    </g>
    <g transform="matrix(0.512165,0,0,0.504532,31.8646,-1.77636e-15)">
        <circle cx="31.291" cy="31.291" r="31.291" style="fill:rgb(235,210,180);"/>
    </g>
    <g transform="matrix(0.512165,0,0,0.504532,31.8646,31.5742)">
        <circle cx="31.291" cy="31.291" r="31.291" style="fill:rgb(244,152,156);"/>
    </g>
    <g transform="matrix(0.512165,0,0,0.504532,0,0.184425)">
        <circle cx="31.291" cy="31.291" r="31.291" style="fill:rgb(218,196,247);"/>
    </g>
    <g transform="matrix(3.1361e-17,0.512165,-0.504532,3.08937e-17,90,58.0418)">
        <circle cx="31.291" cy="31.291" r="31.291" style="fill:rgb(172,236,247);"/>
    </g>
    <g transform="matrix(3.1361e-17,0.512165,-0.504532,3.08937e-17,121.574,89.9064)">
        <circle cx="31.291" cy="31.291" r="31.291" style="fill:rgb(235,210,180);"/>
    </g>
    <g transform="matrix(3.1361e-17,0.512165,-0.504532,3.08937e-17,121.574,89.9064)">
        <circle cx="31.291" cy="31.291" r="31.291" style="fill:rgb(235,210,180);"/>
    </g>
    <g transform="matrix(3.1361e-17,0.512165,-0.504532,3.08937e-17,90,89.9064)">
        <circle cx="31.291" cy="31.291" r="31.291" style="fill:rgb(244,152,156);"/>
    </g>
    <g transform="matrix(3.1361e-17,0.512165,-0.504532,3.08937e-17,121.39,58.0418)">
        <circle cx="31.291" cy="31.291" r="31.291" style="fill:rgb(218,196,247);"/>
    </g>
</svg>
