<?xml version="1.0" encoding="UTF-8" standalone="no"?>
<!DOCTYPE svg PUBLIC "-//W3C//DTD SVG 1.1//EN" "http://www.w3.org/Graphics/SVG/1.1/DTD/svg11.dtd">
<svg width="100%" height="100%" viewBox="0 0 800 600" version="1.1" xmlns="http://www.w3.org/2000/svg" xmlns:xlink="http://www.w3.org/1999/xlink" xml:space="preserve" xmlns:serif="http://www.serif.com/" style="fill-rule:evenodd;clip-rule:evenodd;stroke-linecap:round;stroke-linejoin:round;stroke-miterlimit:1.5;">
    <path d="M317.089,273.418C301.086,235.411 290.663,194.184 288.134,152.988C287.635,144.86 284.656,116.807 292.57,110.018C296.183,106.919 315.51,136.598 323.081,162.708C324.156,166.418 324.918,169.64 325.79,173.363C326.071,174.564 326.267,178.164 326.597,176.975C334.076,150.031 332.801,124.374 345.423,98.484C347.679,93.857 355.77,78.242 362.865,78.963C400.911,82.826 407.721,164.691 406.664,189.884C406.145,202.278 404.378,214.542 403.049,226.859C402.067,235.962 401.168,247.831 401.288,246.95C407.691,200.238 425.634,155.15 455.728,118.529C465.061,107.171 483.902,82.325 500.894,95.738C545.893,131.256 513.231,205.202 488.648,242.163C479.08,256.548 467.813,270.048 455.984,282.621C452.084,286.767 448.089,290.793 443.819,294.557C442.149,296.029 437.823,300.84 438.63,298.764C451.549,265.57 493.149,238.087 524.628,225.416C534.058,221.62 568.469,205.247 568.491,226.932C568.532,268.025 515.694,296.207 484.669,310.779C471.729,316.856 458.47,322.398 444.95,327.048C440.478,328.586 438.561,329.205 434.247,330.439C431.899,331.111 424.723,332.16 427.161,332.306C482.179,335.596 578.584,346.297 581.691,420.538C582.48,439.379 574.106,456.729 559.224,468.217C508.433,507.422 444.483,472.852 404.079,436.207C381.875,416.069 366.704,394.751 352.301,368.513C347.537,359.834 343.598,350.787 340.312,341.456C338.154,335.326 334.788,322.88 335.418,324.293C342.204,339.519 347.14,355.337 351.638,371.358C362.369,409.582 389.553,499.778 335.68,520.427C276.871,542.968 240.051,470.36 239.512,422.732C239.281,402.352 243.798,382.294 251.97,363.69C254.776,357.302 258.066,351.182 261.482,345.106C262.664,343.005 265.591,336.559 265.275,338.949C254.752,418.499 117.987,489.857 77.786,397.663C46.417,325.724 127.01,267.283 189.025,255.158C211.306,250.801 233.725,251.193 255.887,256.052C258.283,256.578 277.112,259.836 278.197,263.591C280.517,271.623 242.36,275.251 234.747,274.52C200.408,271.225 162.777,254.093 153.136,218.221C142.653,179.217 205.708,174.852 228.666,178.23C283.306,186.27 351.769,236.294 383.871,281.579L317.089,273.418Z" style="fill:rgb(253,197,245);stroke:rgb(114,221,247);stroke-width:5.67px;"/>
</svg>
