<svg xmlns="http://www.w3.org/2000/svg" width="100" height="100" viewBox="0 0 100 100">
  <g>
    <path d="M29.206,83.7a7.823,7.823,0,0,1-6.65-3.881,7.466,7.466,0,0,1-.087-7.543L33.864,51.328a2.768,2.768,0,0,0,0-2.656L22.469,27.725a7.467,7.467,0,0,1,.087-7.542,7.822,7.822,0,0,1,6.65-3.883,7.69,7.69,0,0,1,3.876,1.077L74.538,41.312a10.031,10.031,0,0,1,0,17.376L33.082,82.623A7.689,7.689,0,0,1,29.206,83.7Z"/>
    <path d="M29.207,16.8h0a7.189,7.189,0,0,1,3.625,1.01l16.019,9.248L74.288,41.745a9.532,9.532,0,0,1,0,16.51L48.851,72.941,32.832,82.19a7.193,7.193,0,0,1-3.626,1.01,7.321,7.321,0,0,1-6.22-3.637,6.978,6.978,0,0,1-.078-7.049L34.3,51.567a3.266,3.266,0,0,0,0-3.134L22.908,27.486a6.975,6.975,0,0,1,.078-7.047A7.324,7.324,0,0,1,29.207,16.8m0-1a8.237,8.237,0,0,0-7.177,12.164l11.4,20.947a2.276,2.276,0,0,1,0,2.178L22.029,72.036a8.173,8.173,0,0,0,11.3,11.02l16.019-9.248L74.788,59.121a10.532,10.532,0,0,0,0-18.242L49.351,26.192,33.332,16.944A8.2,8.2,0,0,0,29.206,15.8Z"/>
  </g>
</svg>